<?xml version="1.0" encoding="utf-8"?>
<!-- Generator: Adobe Illustrator 24.1.0, SVG Export Plug-In . SVG Version: 6.00 Build 0)  -->
<svg version="1.1" id="Capa_1" xmlns="http://www.w3.org/2000/svg" xmlns:xlink="http://www.w3.org/1999/xlink" x="0px" y="0px"
	 viewBox="0 0 460 515.9" style="enable-background:new 0 0 460 515.9;" xml:space="preserve">
<style type="text/css">
	.st0{fill:#FFFFFF;}
</style>
<g>
	<path class="st0" d="M162.8,116L162.8,116L162.8,116 M158.9,132.1l23.1,6.2l-1.2,4.5c-6.5,5.1-10.7,12.8-11.3,21.3
		c-0.5,6.9-1.3,14.9-2.3,23.7c0,0.2,0,0.4-0.1,0.6c-2,17.7-4.8,38-8.1,58.8c-1.5,9.5,1.6,19.1,8.4,25.9c5.3,5.3,13.2,24.8,8.7,41.5
		l-39.6,147.6c0,0.2-0.1,0.4-0.1,0.5l-6.1,22.7c-0.1,0-0.1,0.1-0.2,0.1c-0.5,0.3-1.1,0.4-1.8,0.4c-0.5,0-1-0.1-1.5-0.2l-46.9-12.6
		c-0.1,0-0.3-0.1-0.4-0.1l-46.6-12.5c-1.9-0.5-2.7-1.6-2.9-2l45.8-170.9c4.5-16.7,21-29.6,28.3-31.6c9.2-2.5,16.7-9.3,20.2-18.2
		c5.3-13.7,10.6-27.1,15.9-39.8c0.1-0.2,0.2-0.4,0.2-0.6c6-14.3,11.5-26.6,16.3-36.6c3.7-7.6,3.9-16.3,0.9-24L158.9,132.1
		 M142.7,186.1L142.7,186.1L142.7,186.1 M149.5,99.2c-3.9,0-7.8,1.3-10.9,3.6c-3.2,2.5-5.2,6-5.7,9.9l-5.3,19.9
		c-1.6,3.6-1.6,7.8,0,11.6c0.5,1.3,1.2,2.5,2,3.6c-5.1,10.6-10.9,23.7-17,38.3c0,0,0,0,0,0c-5.3,12.7-10.9,26.6-16.4,40.9
		c-18.7,5.1-42.5,26.9-49.4,52.8L1,451c-4.4,16.5,6.4,33.7,24.2,38.5l46.9,12.6h0l46.9,12.6c3.1,0.8,6.2,1.2,9.2,1.2
		c5.4,0,10.6-1.2,15.4-3.6c7.9-4,13.4-10.7,15.6-18.8l6.3-23.5v0l39.6-147.6c6.9-25.9-2.8-56.7-16.4-70.4
		c3.4-21.6,6.3-42.6,8.3-60.6c0,0,0-0.1,0-0.1c1-9.1,1.8-17.4,2.4-24.7c4.3-2.1,7.8-6,9.1-11l5.8-21.8c2.4-9.1-3-18.4-12-20.8
		l-48.2-12.9C152.6,99.4,151.1,99.2,149.5,99.2L149.5,99.2z"/>
</g>
<g>
	<path class="st0" d="M313.7,128.7L313.7,128.7L313.7,128.7 M301.1,132.1l1.3,4.8c-3,7.7-2.8,16.4,0.9,24
		c4.8,10,10.3,22.3,16.3,36.8c0,0.1,0,0.1,0.1,0.2c5.3,12.6,10.7,26.1,16,40c3.4,8.9,10.9,15.7,20.2,18.2c7.3,2,23.8,14.9,28.3,31.6
		L430,458.5c0,0.1-0.1,0.1-0.1,0.2c-0.5,0.8-1.5,1.5-2.7,1.8l-93.9,25.2c-0.5,0.1-1,0.2-1.4,0.2c-0.7,0-1.3-0.1-1.8-0.4
		c-0.1-0.1-0.2-0.1-0.3-0.2l-45.8-170.9c-4.5-16.7,3.4-36.2,8.7-41.5c6.8-6.8,9.9-16.4,8.4-25.9c-3.3-21-6.1-41.5-8.1-59.2
		c0-0.2-0.1-0.5-0.1-0.7c-1-8.7-1.7-16.5-2.2-23.1c-0.6-8.5-4.8-16.2-11.3-21.3l-1.2-4.5L301.1,132.1 M310.5,99.2
		c-1.5,0-3.1,0.2-4.5,0.6l-48.2,12.9c-4.4,1.2-8.1,4-10.3,7.9c-2.3,4-2.9,8.5-1.7,12.9l5.8,21.8c1.3,5,4.8,8.9,9.1,11
		c0.5,7.3,1.4,15.7,2.4,24.7c0,0.1,0,0.1,0,0.2c2,18.1,4.9,39,8.3,60.6c-13.7,13.7-23.4,44.6-16.4,70.4l45.9,171.1
		c2.2,8.2,7.7,14.8,15.6,18.8c4.8,2.4,10,3.6,15.4,3.6c3.1,0,6.2-0.4,9.2-1.2l93.9-25.2c8.4-2.2,15.5-7.4,20.1-14.4
		c4.8-7.4,6.2-15.9,4.1-24.1l-45.9-171.1c-6.9-25.9-30.8-47.7-49.4-52.8c-5.5-14.3-11-28.1-16.4-40.9c0,0,0,0,0,0
		c-6.1-14.6-11.9-27.7-17-38.3c0.8-1.1,1.5-2.3,2-3.6c1.6-3.8,1.6-8,0-11.6l-5.3-19.9c-0.4-3.9-2.4-7.4-5.7-9.9
		C318.3,100.4,314.4,99.2,310.5,99.2L310.5,99.2z"/>
</g>
<g>
	<path class="st0" d="M230,54.5c-8.3,0-15-6.7-15-15V15c0-8.3,6.7-15,15-15s15,6.7,15,15v24.5C245,47.8,238.3,54.5,230,54.5z"/>
</g>
<g>
	<path class="st0" d="M272.4,72.9c-2.7,0-5.4-0.7-7.9-2.3c-7-4.4-9.2-13.6-4.8-20.7l12.9-20.8c4.4-7,13.6-9.2,20.7-4.8
		c7,4.4,9.2,13.6,4.8,20.7l-12.9,20.8C282.3,70.4,277.4,72.9,272.4,72.9z"/>
</g>
<g>
	<path class="st0" d="M187.6,72.9c-5,0-9.9-2.5-12.8-7.1L161.9,45c-4.4-7-2.2-16.3,4.8-20.7c7-4.4,16.3-2.2,20.7,4.8L200.3,50
		c4.4,7,2.2,16.3-4.8,20.7C193,72.2,190.3,72.9,187.6,72.9z"/>
</g>
</svg>
