<?xml version="1.0" encoding="utf-8"?>
<!-- Generator: Adobe Illustrator 24.1.0, SVG Export Plug-In . SVG Version: 6.00 Build 0)  -->
<svg version="1.1" id="Laag_1" xmlns="http://www.w3.org/2000/svg" xmlns:xlink="http://www.w3.org/1999/xlink" x="0px" y="0px"
	 viewBox="0 0 512 512" style="enable-background:new 0 0 512 512;" xml:space="preserve">
<style type="text/css">
	.st0{fill:#FFFFFF;}
</style>
<path class="st0" d="M256,0C161.9,0,85.3,76.6,85.3,170.7c0,28.2,7.1,56.3,20.5,81.1l140.8,254.7c1.9,3.4,5.4,5.5,9.3,5.5
	s7.5-2.1,9.3-5.5l140.9-254.8c13.4-24.8,20.4-52.8,20.4-81C426.7,76.6,350.1,0,256,0z M256,231.7c-33.6,0-61-27.4-61-61
	s27.4-61,61-61s61,27.4,61,61S289.6,231.7,256,231.7z"/>
</svg>
