<?xml version="1.0" encoding="utf-8"?>
<!-- Generator: Adobe Illustrator 24.1.0, SVG Export Plug-In . SVG Version: 6.00 Build 0)  -->
<svg version="1.1" id="Laag_1" xmlns="http://www.w3.org/2000/svg" xmlns:xlink="http://www.w3.org/1999/xlink" x="0px" y="0px"
	 viewBox="0 0 552 543.2" style="enable-background:new 0 0 552 543.2;" xml:space="preserve">
<style type="text/css">
	.st0{fill:#FFFFFF;}
</style>
<path class="st0" d="M551.9,381c-1-25.3-7.1-62.3-45.6-124.5c-0.2-0.4-0.5-0.8-0.7-1.3c-2.9-5.3-7.7-14.1-17.5-17.5
	c-7.6-2.6-16-1-21.8,4.4c-10.1,9.3-6.8,22.8-5.6,27.4c0.3,1.4,0.4,2.8,0.2,4.2c-0.7,4.5-2,8.9-4.1,13c-0.1,0.1-0.1,0.3-0.2,0.4
	c-3.2,6.7-9,13.8-14,13.5c-5.1-0.4-6-1.8-6.4-2.6c-4.6-7.5-1.7-29.3,6.3-47.5c17.8-41-7.3-76.7-16.7-88.1c1.8-9.5,2.7-19.1,2.7-28.7
	c0.3-29.5-8.1-58-24.2-82.6C383.8,19.2,349.1,0.1,311.4,0c-0.2,0-0.3,0-0.4,0c-36.6,0.7-71.2,15.7-96.7,41.1
	C188.7,15.7,154,0.7,117.5,0c-0.1,0-0.2,0-0.4,0C83.8,0,53.4,14.6,31.6,41C11.2,65.7,0,98.5,0,133.4c0,66.4,40.8,129.4,128.5,198.3
	c18.9,14.9,40.5,30.4,64.1,46.2c6.6,4.3,14.1,6.5,21.6,6.5c7.5,0,15.1-2.2,21.7-6.5c4.6-3.1,9.2-6.1,13.6-9.2
	c-5.6,31.3-0.9,64.1,14.1,93c0.1,0.1,0.1,0.3,0.2,0.4c28.1,51.2,82.7,81.1,137.8,81.1c21.2,0,42.4-4.4,62.2-13.8
	c0.1,0,0.1-0.1,0.2-0.1c33.2-16.2,59.8-43.7,74.7-77.5c0,0,0,0,0,0C548.5,429.6,553,405.1,551.9,381z M214.2,344.1
	c-22.5-15-43-29.8-61-44C76,239.5,40,186.4,40,133.4c0-25.6,8-49.4,22.4-66.9c10-12,27.5-26.4,54.5-26.5
	c32.3,0.7,62.5,16.9,80.8,43.5c3.7,5.4,9.9,8.7,16.5,8.7c6.6,0,12.7-3.2,16.5-8.7C249,56.9,279.2,40.7,311.5,40
	c24,0.2,46.1,12.3,59.1,32.6c0,0.1,0.1,0.1,0.1,0.2c10.9,16.5,16.9,35.4,17.6,55c-6.6-5.5-13.3-10.9-20.1-16.1c0,0-0.1,0-0.1-0.1
	c-9.2-7-21.9-7.5-31.7-1.3c-9.7,6.2-14.7,17.9-12.3,29.2c0.5,2.2,0.9,4.2,1.2,6c0.4,2.2,0.8,4,1.2,5.6c2.3,10.6,3.5,21.4,3.3,32.2
	c-0.7,20.3-5.9,40.6-15.2,58.6c-0.1,0.1-0.1,0.3-0.2,0.4c-7,14.5-15.9,28.1-25.4,42.5c-1.9,2.9-3.9,5.9-5.8,8.9
	C263.2,310,240,327,214.2,344.1z M502.1,435.6c-11.1,25.1-30.8,45.6-55.5,57.6c-25.2,11.9-54.5,13.2-82.5,3.7
	c-28.1-9.5-51.2-28.7-65.1-53.9c-15.8-30.7-15.7-67.3,0.3-97.9c0,0,0-0.1,0.1-0.1c4.7-9.1,10.1-17.9,15.8-26.8
	c0-0.1,0.1-0.1,0.1-0.2c2.4-3.7,4.8-7.3,7.2-11.1c9.7-14.8,19.7-30,27.8-46.8c11.9-23.3,18.7-49.4,19.5-75.6c0-0.1,0-0.2,0-0.3
	c0.1-6.8-0.2-13.5-0.9-20.3c8.9,7.7,17.6,15.7,26,23.9c5.3,6.3,19.7,26.2,10.8,46.6c-2.4,5.5-8.3,20.3-10.7,37.9
	c-2.6,18.9-0.3,34.4,6.9,46.3c5.5,9.1,16.6,20.3,37.8,21.8c20.1,1.4,38.6-10.1,50.4-31.2c17.8,35.2,21.1,57.5,21.8,73.5
	c0,0.1,0,0.1,0,0.2C512.8,400.9,509.4,419.1,502.1,435.6z"/>
</svg>
