<?xml version="1.0" encoding="UTF-8"?>
<svg enable-background="new 0 0 513.3 513.3" version="1.1" viewBox="0 0 513.3 513.3" xml:space="preserve" xmlns="http://www.w3.org/2000/svg">
<style type="text/css">
	.st0{fill:#43B59D;}
</style>

	
		<path class="st0" d="M495,404.5L410.6,320c15.4-30.7,25.6-66.6,25.6-102.4C436.2,97.3,338.9,0,218.6,0S1,97.3,1,217.6    s97.3,217.6,217.6,217.6c35.8,0,71.7-10.2,102.4-25.6l84.5,84.5c25.6,25.6,64,25.6,89.6,0C518.1,468.5,518.1,430.1,495,404.5z     M218.6,384c-92.2,0-166.4-74.2-166.4-166.4S126.4,51.2,218.6,51.2S385,125.4,385,217.6S310.7,384,218.6,384z"/>
	

</svg>
